<svg width="51" height="56" viewBox="0 0 51 56" fill="none" xmlns="http://www.w3.org/2000/svg">
<path fill-rule="evenodd" clip-rule="evenodd" d="M16.8592 51.9843L7.35921 45.8885L7.35918 45.8885C3.75961 43.5787 1.95983 42.4239 0.979915 40.6308C0 38.8377 0 36.6993 0 32.4224V23.7302C0 20.9088 8.84492e-09 19.018 0.281317 17.5431L23.5 32.4418V55.6954C21.7874 55.1466 19.8596 53.9096 16.8592 51.9843ZM27.5 55.6954C29.2126 55.1466 31.1404 53.9096 34.1408 51.9843L43.6408 45.8885C47.2404 43.5787 49.0402 42.4239 50.0201 40.6308C51 38.8377 51 36.6993 51 32.4224V23.7302C51 20.9088 51 19.018 50.7187 17.5431L27.5 32.4418V55.6954ZM48.8488 13.9903L25.5 28.9724L2.15125 13.9903C3.24315 12.9052 4.87128 11.8605 7.35921 10.264L16.8592 4.1682C21.0558 1.4754 23.154 0.128997 25.5 0.128997C27.846 0.128997 29.9442 1.4754 34.1408 4.1682L43.6408 10.2641C46.1287 11.8605 47.7569 12.9052 48.8488 13.9903Z" fill="#34C759"/>
</svg>
