<svg width="70" height="16" viewBox="0 0 70 16" fill="none" xmlns="http://www.w3.org/2000/svg">
<path fill-rule="evenodd" clip-rule="evenodd" d="M4.8398 14.4076L1.8398 12.4826C0.939905 11.9051 0.489958 11.6164 0.244979 11.1682C0 10.7199 0 10.1853 0 9.11605V6.30134C0 5.90578 -3.02273e-10 5.58339 0.0124037 5.31147L6 9.15353V15.1168C5.68489 14.9499 5.31649 14.7135 4.8398 14.4076ZM8 15.1168C8.31511 14.9499 8.6835 14.7135 9.16019 14.4076L9.1602 14.4076L12.1602 12.4826C13.0601 11.9051 13.51 11.6164 13.755 11.1682C14 10.7199 14 10.1853 14 9.11605V6.30134C14 5.90578 14 5.58339 13.9876 5.31147L8 9.15353V15.1168ZM13.0584 3.53136L7 7.41886L0.941568 3.53135C1.17637 3.36051 1.47012 3.17202 1.8398 2.93481L4.8398 1.0098C5.88894 0.3366 6.41351 0 7 0C7.58649 0 8.11106 0.3366 9.1602 1.0098L12.1602 2.93481C12.5299 3.17202 12.8236 3.36051 13.0584 3.53136Z" fill="#34C759"/>
<path d="M18.4911 12L19.8911 5H22.9311C23.6644 5 24.2911 5.12 24.8111 5.36C25.3377 5.6 25.7411 5.94 26.0211 6.38C26.3011 6.81333 26.4411 7.33333 26.4411 7.94C26.4411 8.56 26.3344 9.12 26.1211 9.62C25.9077 10.1133 25.6077 10.54 25.2211 10.9C24.8344 11.2533 24.3744 11.5267 23.8411 11.72C23.3077 11.9067 22.7177 12 22.0711 12H18.4911ZM20.7911 10.42H22.1311C22.6311 10.42 23.0511 10.3167 23.3911 10.11C23.7311 9.90333 23.9911 9.62333 24.1711 9.27C24.3511 8.91 24.4411 8.50667 24.4411 8.06C24.4411 7.74667 24.3744 7.48 24.2411 7.26C24.1144 7.04 23.9211 6.87333 23.6611 6.76C23.4077 6.64 23.0911 6.58 22.7111 6.58H21.5511L20.7911 10.42ZM30.5328 12.14C29.8128 12.14 29.1928 12.01 28.6728 11.75C28.1528 11.4833 27.7528 11.12 27.4728 10.66C27.1928 10.2 27.0528 9.66667 27.0528 9.06C27.0528 8.44667 27.1594 7.88667 27.3728 7.38C27.5861 6.86667 27.8861 6.42333 28.2728 6.05C28.6594 5.67 29.1194 5.37667 29.6528 5.17C30.1928 4.96333 30.7828 4.86 31.4228 4.86C32.1428 4.86 32.7628 4.99333 33.2828 5.26C33.8028 5.52 34.2028 5.88 34.4828 6.34C34.7628 6.8 34.9028 7.33333 34.9028 7.94C34.9028 8.55333 34.7961 9.11667 34.5828 9.63C34.3694 10.1367 34.0694 10.58 33.6828 10.96C33.2961 11.3333 32.8328 11.6233 32.2928 11.83C31.7594 12.0367 31.1728 12.14 30.5328 12.14ZM30.7028 10.5C31.0494 10.5 31.3561 10.4367 31.6228 10.31C31.8961 10.1833 32.1261 10.0067 32.3128 9.78C32.5061 9.54667 32.6528 9.28333 32.7528 8.99C32.8528 8.69667 32.9028 8.38667 32.9028 8.06C32.9028 7.74667 32.8361 7.47333 32.7028 7.24C32.5761 7.00667 32.3894 6.82667 32.1428 6.7C31.9028 6.56667 31.6061 6.5 31.2528 6.5C30.9128 6.5 30.6061 6.56333 30.3328 6.69C30.0594 6.81667 29.8261 6.99667 29.6328 7.23C29.4461 7.45667 29.3028 7.71667 29.2028 8.01C29.1028 8.30333 29.0528 8.61333 29.0528 8.94C29.0528 9.24667 29.1161 9.52 29.2428 9.76C29.3761 9.99333 29.5628 10.1767 29.8028 10.31C30.0494 10.4367 30.3494 10.5 30.7028 10.5ZM39.0298 12.14C38.3165 12.14 37.6931 12.01 37.1598 11.75C36.6331 11.49 36.2265 11.13 35.9398 10.67C35.6531 10.2033 35.5098 9.66667 35.5098 9.06C35.5098 8.45333 35.6165 7.89333 35.8298 7.38C36.0431 6.86667 36.3431 6.42333 36.7298 6.05C37.1165 5.67 37.5765 5.37667 38.1098 5.17C38.6498 4.96333 39.2465 4.86 39.8998 4.86C40.5465 4.86 41.1198 4.97333 41.6198 5.2C42.1198 5.42667 42.4931 5.75333 42.7398 6.18L41.3098 7.32C41.1498 7.05333 40.9398 6.85 40.6798 6.71C40.4265 6.57 40.1231 6.5 39.7698 6.5C39.4298 6.5 39.1198 6.56 38.8398 6.68C38.5665 6.8 38.3298 6.97 38.1298 7.19C37.9298 7.41 37.7765 7.67 37.6698 7.97C37.5631 8.26333 37.5098 8.58333 37.5098 8.93C37.5098 9.24333 37.5765 9.52 37.7098 9.76C37.8498 9.99333 38.0465 10.1767 38.2998 10.31C38.5598 10.4367 38.8665 10.5 39.2198 10.5C39.5331 10.5 39.8331 10.4367 40.1198 10.31C40.4131 10.1833 40.6831 9.97667 40.9298 9.69L42.0998 10.84C41.7065 11.3133 41.2531 11.65 40.7398 11.85C40.2265 12.0433 39.6565 12.14 39.0298 12.14ZM45.1343 12.14C44.7343 12.14 44.3509 12.1067 43.9843 12.04C43.6176 11.98 43.2843 11.8933 42.9843 11.78C42.6843 11.66 42.4276 11.53 42.2143 11.39L42.9943 9.91C43.2343 10.0567 43.4809 10.1833 43.7343 10.29C43.9943 10.39 44.2576 10.4667 44.5243 10.52C44.7909 10.5733 45.0576 10.6 45.3243 10.6C45.5776 10.6 45.7943 10.5767 45.9743 10.53C46.1543 10.4767 46.2909 10.4033 46.3843 10.31C46.4776 10.2167 46.5243 10.1067 46.5243 9.98C46.5243 9.84 46.4609 9.73 46.3343 9.65C46.2143 9.56333 46.0543 9.49 45.8543 9.43C45.6543 9.37 45.4309 9.31 45.1843 9.25C44.9443 9.18333 44.7009 9.10667 44.4543 9.02C44.2143 8.92667 43.9943 8.81333 43.7943 8.68C43.5943 8.54 43.4309 8.36333 43.3043 8.15C43.1843 7.93667 43.1243 7.67333 43.1243 7.36C43.1243 6.85333 43.2609 6.41333 43.5343 6.04C43.8076 5.66667 44.1943 5.37667 44.6943 5.17C45.2009 4.96333 45.7976 4.86 46.4843 4.86C46.9843 4.86 47.4509 4.91333 47.8843 5.02C48.3176 5.12 48.6909 5.26667 49.0043 5.46L48.2843 6.93C48.0109 6.75667 47.7076 6.62667 47.3743 6.54C47.0476 6.44667 46.7109 6.4 46.3643 6.4C46.0976 6.4 45.8676 6.43 45.6743 6.49C45.4876 6.55 45.3443 6.63333 45.2443 6.74C45.1509 6.84 45.1043 6.95333 45.1043 7.08C45.1043 7.21333 45.1643 7.32333 45.2843 7.41C45.4043 7.49667 45.5643 7.57 45.7643 7.63C45.9709 7.69 46.1943 7.75333 46.4343 7.82C46.6809 7.88 46.9243 7.95333 47.1643 8.04C47.4043 8.12 47.6276 8.23 47.8343 8.37C48.0409 8.50333 48.2043 8.67333 48.3243 8.88C48.4443 9.08667 48.5043 9.34333 48.5043 9.65C48.5043 10.15 48.3676 10.5867 48.0943 10.96C47.8209 11.3333 47.4309 11.6233 46.9243 11.83C46.4176 12.0367 45.8209 12.14 45.1343 12.14ZM49.3589 12L50.7589 5H51.7589L50.5289 11.13H54.3289L54.1589 12H49.3589ZM54.2364 12L58.8164 5H59.8064L61.5764 12H60.5864L59.0264 5.54H59.4264L55.3164 12H54.2364ZM55.9364 10.25L56.3764 9.45H60.3064L60.4464 10.25H55.9364ZM62.6206 12L64.0206 5H67.1206C67.8206 5 68.3639 5.13 68.7506 5.39C69.1373 5.65 69.3306 6.03333 69.3306 6.54C69.3306 6.98 69.2206 7.35333 69.0006 7.66C68.7873 7.96 68.5073 8.18667 68.1606 8.34C67.8139 8.49333 67.4473 8.57 67.0606 8.57L67.2906 8.28C67.8106 8.28 68.2306 8.41 68.5506 8.67C68.8706 8.93 69.0306 9.31 69.0306 9.81C69.0306 10.29 68.9039 10.6933 68.6506 11.02C68.4039 11.3467 68.0506 11.5933 67.5906 11.76C67.1373 11.92 66.6039 12 65.9906 12H62.6206ZM63.7806 11.19H66.0606C66.6873 11.19 67.1739 11.0733 67.5206 10.84C67.8673 10.6067 68.0406 10.2667 68.0406 9.82C68.0406 9.46667 67.9139 9.22 67.6606 9.08C67.4073 8.93333 67.0473 8.86 66.5806 8.86H64.0806L64.2406 8.05H66.4506C66.8173 8.05 67.1373 8 67.4106 7.9C67.6906 7.8 67.9073 7.65 68.0606 7.45C68.2139 7.25 68.2906 7 68.2906 6.7C68.2906 6.39333 68.1706 6.17 67.9306 6.03C67.6906 5.88333 67.3506 5.81 66.9106 5.81H64.8506L63.7806 11.19Z" fill="black"/>
</svg>
